<svg width="230" height="96" viewBox="0 0 230 96" fill="none" xmlns="http://www.w3.org/2000/svg">
<path d="M34.752 38.448C34.752 42.16 33.472 45.2533 30.912 47.728C28.3947 50.16 24.5333 51.376 19.328 51.376H10.752V70H4.928V25.392H19.328C24.3627 25.392 28.1813 26.608 30.784 29.04C33.4293 31.472 34.752 34.608 34.752 38.448ZM19.328 46.576C22.5707 46.576 24.96 45.872 26.496 44.464C28.032 43.056 28.8 41.0507 28.8 38.448C28.8 32.944 25.6427 30.192 19.328 30.192H10.752V46.576H19.328Z" fill="white"/>
<path d="M73.548 43.252C73.548 45.34 72.828 47.08 71.388 48.472C69.972 49.84 67.8 50.524 64.872 50.524H60.048V61H56.772V35.908H64.872C67.704 35.908 69.852 36.592 71.316 37.96C72.804 39.328 73.548 41.092 73.548 43.252ZM64.872 47.824C66.696 47.824 68.04 47.428 68.904 46.636C69.768 45.844 70.2 44.716 70.2 43.252C70.2 40.156 68.424 38.608 64.872 38.608H60.048V47.824H64.872ZM91.6957 35.908V61H88.4197V35.908H91.6957ZM125.647 35.908L117.475 51.532V61H114.199V51.532L105.991 35.908H109.627L115.819 48.616L122.011 35.908H125.647ZM143.106 35.908V51.784C143.106 54.016 143.646 55.672 144.726 56.752C145.83 57.832 147.354 58.372 149.298 58.372C151.218 58.372 152.718 57.832 153.798 56.752C154.902 55.672 155.454 54.016 155.454 51.784V35.908H158.73V51.748C158.73 53.836 158.31 55.6 157.47 57.04C156.63 58.456 155.49 59.512 154.05 60.208C152.634 60.904 151.038 61.252 149.262 61.252C147.486 61.252 145.878 60.904 144.438 60.208C143.022 59.512 141.894 58.456 141.054 57.04C140.238 55.6 139.83 53.836 139.83 51.748V35.908H143.106ZM182.951 61.252C181.295 61.252 179.807 60.964 178.487 60.388C177.191 59.788 176.171 58.972 175.427 57.94C174.683 56.884 174.299 55.672 174.275 54.304H177.767C177.887 55.48 178.367 56.476 179.207 57.292C180.071 58.084 181.319 58.48 182.951 58.48C184.511 58.48 185.735 58.096 186.623 57.328C187.535 56.536 187.991 55.528 187.991 54.304C187.991 53.344 187.727 52.564 187.199 51.964C186.671 51.364 186.011 50.908 185.219 50.596C184.427 50.284 183.359 49.948 182.015 49.588C180.359 49.156 179.027 48.724 178.019 48.292C177.035 47.86 176.183 47.188 175.463 46.276C174.767 45.34 174.419 44.092 174.419 42.532C174.419 41.164 174.767 39.952 175.463 38.896C176.159 37.84 177.131 37.024 178.379 36.448C179.651 35.872 181.103 35.584 182.735 35.584C185.087 35.584 187.007 36.172 188.495 37.348C190.007 38.524 190.859 40.084 191.051 42.028H187.451C187.331 41.068 186.827 40.228 185.939 39.508C185.051 38.764 183.875 38.392 182.411 38.392C181.043 38.392 179.927 38.752 179.063 39.472C178.199 40.168 177.767 41.152 177.767 42.424C177.767 43.336 178.019 44.08 178.523 44.656C179.051 45.232 179.687 45.676 180.431 45.988C181.199 46.276 182.267 46.612 183.635 46.996C185.291 47.452 186.623 47.908 187.631 48.364C188.639 48.796 189.503 49.48 190.223 50.416C190.943 51.328 191.303 52.576 191.303 54.16C191.303 55.384 190.979 56.536 190.331 57.616C189.683 58.696 188.723 59.572 187.451 60.244C186.179 60.916 184.679 61.252 182.951 61.252ZM226.256 35.908V61H222.98V49.624H210.2V61H206.924V35.908H210.2V46.924H222.98V35.908H226.256Z" fill="white"/>
<line x1="45.5" y1="70" x2="45.5" y2="25" stroke="white"/>
</svg>
